<svg width="32" height="32" viewBox="0 0 32 32" fill="none" xmlns="http://www.w3.org/2000/svg">
<path d="M25.3337 8.66669H23.627L23.2003 7.33335C22.9237 6.55099 22.4107 5.87402 21.7322 5.39623C21.0537 4.91844 20.2435 4.66349 19.4137 4.66669H12.587C11.7491 4.66825 10.9328 4.93293 10.2533 5.42336C9.57392 5.91379 9.06567 6.60521 8.80033 7.40002L8.37366 8.73335H6.66699C5.60613 8.73335 4.58871 9.15478 3.83857 9.90493C3.08842 10.6551 2.66699 11.6725 2.66699 12.7334V23.4C2.66699 24.4609 3.08842 25.4783 3.83857 26.2284C4.58871 26.9786 5.60613 27.4 6.66699 27.4H25.3337C26.3945 27.4 27.4119 26.9786 28.1621 26.2284C28.9122 25.4783 29.3337 24.4609 29.3337 23.4V12.7334C29.3425 12.2025 29.2456 11.6752 29.0485 11.1821C28.8515 10.6891 28.5582 10.2403 28.1859 9.86173C27.8136 9.48321 27.3696 9.18259 26.8799 8.97742C26.3903 8.77224 25.8646 8.66661 25.3337 8.66669ZM26.667 23.3334C26.667 23.687 26.5265 24.0261 26.2765 24.2762C26.0264 24.5262 25.6873 24.6667 25.3337 24.6667H6.66699C6.31337 24.6667 5.97423 24.5262 5.72418 24.2762C5.47413 24.0261 5.33366 23.687 5.33366 23.3334V12.6667C5.33366 12.3131 5.47413 11.9739 5.72418 11.7239C5.97423 11.4738 6.31337 11.3334 6.66699 11.3334H9.33366C9.62441 11.3485 9.91214 11.2681 10.1529 11.1044C10.3937 10.9407 10.5742 10.7027 10.667 10.4267L11.387 8.24002C11.4764 7.97519 11.6469 7.74517 11.8742 7.58248C12.1015 7.41978 12.3741 7.33263 12.6537 7.33335H19.4803C19.7598 7.33263 20.0325 7.41978 20.2598 7.58248C20.4871 7.74517 20.6575 7.97519 20.747 8.24002L21.467 10.4267C21.5526 10.681 21.7129 10.9036 21.927 11.0654C22.141 11.2271 22.399 11.3205 22.667 11.3334H25.3337C25.6873 11.3334 26.0264 11.4738 26.2765 11.7239C26.5265 11.9739 26.667 12.3131 26.667 12.6667V23.3334ZM16.0003 11.3334C14.9455 11.3334 13.9143 11.6461 13.0373 12.2322C12.1602 12.8182 11.4766 13.6512 11.073 14.6257C10.6693 15.6002 10.5637 16.6726 10.7695 17.7072C10.9753 18.7417 11.4832 19.692 12.2291 20.4379C12.975 21.1838 13.9253 21.6918 14.9598 21.8975C15.9944 22.1033 17.0668 21.9977 18.0413 21.594C19.0158 21.1904 19.8488 20.5068 20.4348 19.6297C21.0209 18.7527 21.3337 17.7215 21.3337 16.6667C21.3337 15.2522 20.7718 13.8956 19.7716 12.8955C18.7714 11.8953 17.4148 11.3334 16.0003 11.3334ZM16.0003 19.3334C15.4729 19.3334 14.9573 19.177 14.5188 18.8839C14.0803 18.5909 13.7385 18.1744 13.5366 17.6872C13.3348 17.1999 13.282 16.6637 13.3849 16.1464C13.4878 15.6292 13.7418 15.154 14.1147 14.7811C14.4876 14.4081 14.9628 14.1542 15.4801 14.0513C15.9974 13.9484 16.5335 14.0012 17.0208 14.203C17.5081 14.4048 17.9246 14.7466 18.2176 15.1852C18.5106 15.6237 18.667 16.1393 18.667 16.6667C18.667 17.3739 18.386 18.0522 17.8859 18.5523C17.3858 19.0524 16.7076 19.3334 16.0003 19.3334Z" fill="white"/>
</svg>
